# xmcd
#
# Track frame offsets:
#	150
#	11938
#	27095
#	36593
#	53201
#	60056
#	67529
#	82020
#	95574
#	109284
#	118551
#	126000
#	138882
#	154932
#
# Disc length: 2294 seconds
#
# Revision: 1
# Processed by: cddbd v1.5.1PL0 Copyright (c) Steve Scherf et al.
# Submitted via: audiograbber 1.83.01
#
DISCID=b408f40e
DTITLE=John Pearse - Blues, Rags and Raga
DYEAR=1972
DGENRE=Blues
TTITLE0=Hesitation BLues (trad.)
TTITLE1=Girl from the North Country (Bob Dylan)
TTITLE2=I'm satisfied (Mississippi John Hurt)
TTITLE3=Raga Kafi Mishra (John Pearse)
TTITLE4=Beacon on the hill (John Pearse)
TTITLE5=I'm so glad (Skip James)
TTITLE6=Pretty Polly (trad.)
TTITLE7=Next week, sometime (trad.)
TTITLE8=Carpenter (Tim Hardin)
TTITLE9=Music Room (John Pearse)
TTITLE10=Lady came from Baltimore (Tim Hardin)
TTITLE11=McGee's Rag (John Pearse)
TTITLE12=Richland Woman Blues (Mississippi John Hurt)
TTITLE13=Streets of London (Ralph McTell)
EXTD=John Pearse, Vovals - Guitar - Dulcimer
EXTT0=
EXTT1=
EXTT2=
EXTT3=
EXTT4=
EXTT5=
EXTT6=
EXTT7=
EXTT8=
EXTT9=
EXTT10=
EXTT11=
EXTT12=
EXTT13=
PLAYORDER=
